<?xml version="1.0" encoding="UTF-8"?>
<svg width="32" height="32" viewBox="0 0 32 32" fill="none" xmlns="http://www.w3.org/2000/svg">
  <rect width="32" height="32" rx="6" fill="#1E3A8A"/>
  <rect x="9" y="17" width="14" height="10" rx="1.5" fill="#2563EB"/>
  <rect x="11.5" y="19.5" width="3" height="3" rx="0.5" fill="#93C5FD"/>
  <rect x="16" y="19.5" width="3" height="3" rx="0.5" fill="#93C5FD"/>
  <rect x="20.5" y="19.5" width="3" height="3" rx="0.5" fill="#93C5FD"/>
  <path d="M7 17C7 12.5 11.5 9.5 16 9.5C20.5 9.5 25 12.5 25 17H7Z" fill="#F59E0B"/>
  <path d="M5.5 17H26.5C27.3 17 28 17.7 28 18.5V20C28 20.8 27.3 21.5 26.5 21.5H5.5C4.7 21.5 4 20.8 4 20V18.5C4 17.7 4.7 17 5.5 17Z" fill="#D97706"/>
  <rect x="14.5" y="7" width="3" height="3" rx="0.75" fill="#FBBF24"/>
</svg>
