<?xml version="1.0" encoding="UTF-8"?>
<svg width="240" height="240" viewBox="0 0 240 240" fill="none" xmlns="http://www.w3.org/2000/svg" role="img" aria-label="Construction OS">
  <defs>
    <linearGradient id="helmetGradient" x1="0%" y1="0%" x2="100%" y2="100%">
      <stop offset="0%" stop-color="#F59E0B"/>
      <stop offset="100%" stop-color="#D97706"/>
    </linearGradient>
    <linearGradient id="buildingGradient" x1="0%" y1="100%" x2="0%" y2="0%">
      <stop offset="0%" stop-color="#1E3A8A"/>
      <stop offset="100%" stop-color="#2563EB"/>
    </linearGradient>
  </defs>

  <!-- Building base -->
  <rect x="72" y="118" width="96" height="72" rx="4" fill="url(#buildingGradient)"/>
  <rect x="88" y="134" width="16" height="16" rx="2" fill="#93C5FD" opacity="0.9"/>
  <rect x="112" y="134" width="16" height="16" rx="2" fill="#93C5FD" opacity="0.9"/>
  <rect x="136" y="134" width="16" height="16" rx="2" fill="#93C5FD" opacity="0.9"/>
  <rect x="88" y="158" width="16" height="16" rx="2" fill="#93C5FD" opacity="0.7"/>
  <rect x="112" y="158" width="16" height="16" rx="2" fill="#93C5FD" opacity="0.7"/>
  <rect x="136" y="158" width="16" height="16" rx="2" fill="#93C5FD" opacity="0.7"/>
  <rect x="108" y="174" width="24" height="16" rx="2" fill="#1E40AF"/>

  <!-- Hard hat -->
  <path d="M60 118C60 96 88 82 120 82C152 82 180 96 180 118H60Z" fill="url(#helmetGradient)"/>
  <path d="M54 118H186C188 118 190 120 190 122V128C190 130 188 132 186 132H54C52 132 50 130 50 128V122C50 120 52 118 54 118Z" fill="#B45309"/>
  <rect x="112" y="70" width="16" height="14" rx="3" fill="#FBBF24"/>

  <!-- Wordmark -->
  <text x="120" y="214" text-anchor="middle" font-family="system-ui, -apple-system, 'Segoe UI', sans-serif" font-size="18" font-weight="700" fill="#1F2937" letter-spacing="0.5">Construction OS</text>
</svg>
